<svg viewBox="0 0 588 52" fill="none" xmlns="http://www.w3.org/2000/svg" style="">
<g opacity="0.72">
<mask id="path-1-outside-1_1_4" maskUnits="userSpaceOnUse" x="-0.0178753" y="0.194276" width="588.223" height="51.7557" fill="black">
<path fill="white" width="588.223" height="51.7557" d="M-0.0178753 0.194276 L588.2051246999999 0.194276 L588.2051246999999 51.949976 L-0.0178753 51.949976 Z" class="ldYkeAKq_0"></path>
<path d="M1.05329 18.1296C1.03326 13.8577 2.26516 10.4199 4.74899 7.81619C7.23281 5.21252 10.6347 3.90056 14.9546 3.88031C19.3226 3.85984 23.7886 4.27091 28.3526 5.11352L26.9666 16.6401C22.2095 15.5584 18.9429 15.0217 17.1669 15.0301C14.911 15.0406 13.7872 15.9579 13.7958 17.7819C13.7992 18.5019 14.3304 19.1954 15.3896 19.8625C16.4967 20.5293 17.8201 21.2431 19.3596 22.0039C20.899 22.7167 22.4392 23.5974 23.9801 24.6462C25.5208 25.647 26.8236 27.1049 27.8886 29.02C29.0016 30.9348 29.564 33.1402 29.5757 35.6361C29.597 40.1961 28.3896 43.7298 25.9533 46.2372C23.517 48.7447 20.0429 50.009 15.531 50.0301C11.067 50.051 6.69581 49.3755 2.41733 48.0036L3.15904 37.272C8.30196 38.7359 11.8814 39.4631 13.8974 39.4537C15.9134 39.4442 16.9172 38.5515 16.9089 36.7755C16.9046 35.8635 16.3487 35.0261 15.2411 34.2633C14.1815 33.5003 12.8819 32.7383 11.3423 31.9776C9.80273 31.2168 8.23858 30.3361 6.64988 29.3355C5.10917 28.3347 3.78232 26.8769 2.66933 24.9621C1.60434 23.0471 1.06566 20.7696 1.05329 18.1296Z" class="ldYkeAKq_1"></path>
<path d="M36.4183 9.17976C39.1854 5.56675 43.7129 3.74551 50.0008 3.71603C56.2888 3.68656 60.785 5.4415 63.4897 8.98086C66.2423 12.52 67.6374 18.2975 67.6749 26.3134C67.7123 34.2813 66.348 40.1918 63.582 44.0448C60.816 47.8978 56.3131 49.839 50.0732 49.8682C43.8332 49.8975 39.3364 48.0225 36.5826 44.2434C33.8289 40.4642 32.4334 34.5907 32.396 26.6228C32.3584 18.6069 33.6992 12.7925 36.4183 9.17976ZM55.2911 26.3715C55.2704 21.9555 54.8964 18.9813 54.1692 17.4486C53.4898 15.8678 52.0701 15.0825 49.9102 15.0926C47.7982 15.1025 46.4339 15.9009 45.8173 17.4878C45.2005 19.0267 44.9024 21.9801 44.9229 26.3481L44.931 28.0761C44.9528 32.732 45.3032 35.8024 45.9821 37.2872C46.7089 38.7239 48.1282 39.4372 50.2402 39.4273C52.4002 39.4172 53.7889 38.7147 54.4064 37.3198C55.0239 35.9248 55.3224 33.0434 55.3019 28.6755L55.2911 26.3715Z" class="ldYkeAKq_2"></path>
<path d="M96.7175 15.2332L84.8376 15.2889L84.869 21.9848L94.4449 21.9399L94.4895 31.4438L84.9136 31.4887L84.9956 48.9845L72.6837 49.0422L72.4741 4.3307L97.3859 4.21392L96.7175 15.2332Z" class="ldYkeAKq_3"></path>
<path d="M126.22 14.9509L117.868 14.99L118.026 48.8297L105.714 48.8874L105.556 15.0477L96.7 15.0893L97.369 4.214L126.889 4.07563L126.22 14.9509Z" class="ldYkeAKq_4"></path>
<path d="M174.131 3.85418L170.309 48.5846L155.477 48.6541L151.496 28.8726L150.92 28.8753L147.773 48.6902L132.869 48.7601L127.98 4.07052L139.788 4.01517L141.771 27.6941L142.491 27.6908L145.404 3.98884L157.428 3.93248L160.851 27.6047L161.571 27.6013L162.756 3.9075L174.131 3.85418Z" class="ldYkeAKq_5"></path>
<path d="M211.036 48.3937L199.013 48.45L197.611 41.4005L189.116 41.4404L187.781 48.5027L176.333 48.5564L184.331 3.80637L202.619 3.72065L211.036 48.3937ZM196.204 32.983L193.609 17.011L193.105 17.0134L190.66 33.009L196.204 32.983Z" class="ldYkeAKq_6"></path>
<path d="M245.24 17.705C245.253 20.393 244.855 22.6269 244.048 24.4067C243.24 26.1865 241.976 27.8004 240.254 29.2485L246.319 48.2283L233 48.2907L228.46 32.1838L226.804 32.1916L226.88 48.3194L214.784 48.3761L214.574 3.66461L231.278 3.58631C236.078 3.56381 239.587 4.67537 241.806 6.921C244.072 9.1664 245.217 12.7611 245.24 17.705ZM228.641 24.6229C229.889 24.6171 230.775 24.2529 231.299 23.5304C231.824 22.808 232.082 21.5107 232.073 19.6388C232.064 17.7188 231.794 16.4 231.263 15.6825C230.731 14.917 229.865 14.5371 228.665 14.5427L226.721 14.5518L226.769 24.6317L228.641 24.6229Z" class="ldYkeAKq_7"></path>
<path d="M274.553 48.096L250.361 48.2093L250.152 3.49784L275.064 3.38106L274.395 14.4003L262.515 14.456L262.547 21.1519L272.843 21.1037L272.887 30.6076L262.591 30.6558L262.626 38.0717L275.226 38.0127L274.553 48.096Z" class="ldYkeAKq_8"></path>
<path d="M327.742 24.5184C327.815 40.0702 321.707 47.8749 309.419 47.9325L294.588 48.002L294.378 3.29053L309.498 3.21965C316.074 3.18883 320.738 5.01498 323.492 8.69812C326.293 12.333 327.709 17.6064 327.742 24.5184ZM309.155 37.5656C311.699 37.5537 313.327 36.6581 314.038 34.8787C314.798 33.0511 315.167 30.0254 315.148 25.8014C315.128 21.5295 314.706 18.5074 313.881 16.7353C313.105 14.9629 311.421 14.0828 308.829 14.0949L306.669 14.105L306.779 37.5768L309.155 37.5656Z" class="ldYkeAKq_9"></path>
<path d="M356.677 47.711L332.486 47.8244L332.276 3.11288L357.188 2.99611L356.519 14.0154L344.639 14.0711L344.671 20.767L354.967 20.7187L355.011 30.2226L344.715 30.2709L344.75 37.6868L357.35 37.6277L356.677 47.711Z" class="ldYkeAKq_10"></path>
<path d="M393.713 2.8249L386.362 47.5718L367.355 47.6609L359.081 2.98723L372.689 2.92345L376.714 32.2089L377.938 32.2032L380.753 2.88565L393.713 2.8249Z" class="ldYkeAKq_11"></path>
<path d="M422.138 47.4042L397.946 47.5176L397.736 2.80604L422.648 2.68926L421.98 13.7085L410.1 13.7642L410.131 20.4601L420.427 20.4119L420.472 29.9158L410.176 29.964L410.21 37.3799L422.81 37.3209L422.138 47.4042Z" class="ldYkeAKq_12"></path>
<path d="M449.807 47.2745L427.055 47.3811L426.845 2.66959L439.157 2.61188L439.32 37.3155L450.48 37.2632L449.807 47.2745Z" class="ldYkeAKq_13"></path>
<path d="M455.617 7.21478C458.384 3.60177 462.911 1.78052 469.199 1.75105C475.487 1.72157 479.984 3.47652 482.688 7.01588C485.441 10.555 486.836 16.3325 486.873 24.3485C486.911 32.3164 485.547 38.2268 482.781 42.0798C480.015 45.9328 475.512 47.874 469.272 47.9032C463.032 47.9325 458.535 46.0575 455.781 42.2784C453.027 38.4993 451.632 32.6257 451.595 24.6578C451.557 16.6419 452.898 10.8276 455.617 7.21478ZM474.49 24.4065C474.469 19.9905 474.095 17.0163 473.368 15.4837C472.688 13.9028 471.269 13.1175 469.109 13.1276C466.997 13.1375 465.632 13.9359 465.016 15.5228C464.399 17.0617 464.101 20.0151 464.121 24.3831L464.129 26.1111C464.151 30.767 464.502 33.8374 465.181 35.3223C465.907 36.7589 467.327 37.4722 469.439 37.4623C471.599 37.4522 472.987 36.7497 473.605 35.3548C474.222 33.9599 474.521 31.0784 474.5 26.7105L474.49 24.4065Z" class="ldYkeAKq_14"></path>
<path d="M507.222 32.3892L503.91 32.4047L503.978 47.0205L491.882 47.0772L491.673 2.36571L506.288 2.2972C511.424 2.27313 515.246 3.43123 517.753 5.7715C520.26 8.11178 521.526 11.9699 521.551 17.3458C521.576 22.7218 520.418 26.5672 518.077 28.8822C515.736 31.1972 512.118 32.3662 507.222 32.3892ZM508.544 22.6629C508.972 21.8448 509.181 20.3798 509.171 18.2679C509.162 16.1559 508.915 14.669 508.43 13.8073C507.946 12.9455 506.984 12.5181 505.544 12.5248L503.816 12.5329L503.87 23.9088L505.886 23.8993C507.23 23.893 508.116 23.4809 508.544 22.6629Z" class="ldYkeAKq_15"></path>
<path d="M549.472 46.8073L525.28 46.9207L525.071 2.20916L549.983 2.09239L549.314 13.1116L537.434 13.1673L537.466 19.8633L547.762 19.815L547.806 29.3189L537.51 29.3672L537.545 36.7831L550.145 36.724L549.472 46.8073Z" class="ldYkeAKq_16"></path>
<path d="M584.846 16.1131C584.859 18.8011 584.461 21.035 583.653 22.8148C582.846 24.5946 581.581 26.2085 579.86 27.6566L585.925 46.6364L572.605 46.6988L568.066 30.5919L566.41 30.5997L566.485 46.7275L554.389 46.7842L554.18 2.07271L570.884 1.99441C575.684 1.97191 579.193 3.08348 581.411 5.32911C583.678 7.57451 584.823 11.1692 584.846 16.1131ZM568.246 23.031C569.494 23.0252 570.38 22.661 570.905 21.9385C571.43 21.2161 571.688 19.9188 571.679 18.0469C571.67 16.1269 571.4 14.8081 570.868 14.0906C570.337 13.3251 569.471 12.9452 568.271 12.9508L566.327 12.9599L566.374 23.0398L568.246 23.031Z" class="ldYkeAKq_17"></path>
</mask>
<path d="M1.05329 18.1296C1.03326 13.8577 2.26516 10.4199 4.74899 7.81619C7.23281 5.21252 10.6347 3.90056 14.9546 3.88031C19.3226 3.85984 23.7886 4.27091 28.3526 5.11352L26.9666 16.6401C22.2095 15.5584 18.9429 15.0217 17.1669 15.0301C14.911 15.0406 13.7872 15.9579 13.7958 17.7819C13.7992 18.5019 14.3304 19.1954 15.3896 19.8625C16.4967 20.5293 17.8201 21.2431 19.3596 22.0039C20.899 22.7167 22.4392 23.5974 23.9801 24.6462C25.5208 25.647 26.8236 27.1049 27.8886 29.02C29.0016 30.9348 29.564 33.1402 29.5757 35.6361C29.597 40.1961 28.3896 43.7298 25.9533 46.2372C23.517 48.7447 20.0429 50.009 15.531 50.0301C11.067 50.051 6.69581 49.3755 2.41733 48.0036L3.15904 37.272C8.30196 38.7359 11.8814 39.4631 13.8974 39.4537C15.9134 39.4442 16.9172 38.5515 16.9089 36.7755C16.9046 35.8635 16.3487 35.0261 15.2411 34.2633C14.1815 33.5003 12.8819 32.7383 11.3423 31.9776C9.80273 31.2168 8.23858 30.3361 6.64988 29.3355C5.10917 28.3347 3.78232 26.8769 2.66933 24.9621C1.60434 23.0471 1.06566 20.7696 1.05329 18.1296Z" fill="white" class="ldYkeAKq_18"></path>
<path d="M36.4183 9.17976C39.1854 5.56675 43.7129 3.74551 50.0008 3.71603C56.2888 3.68656 60.785 5.4415 63.4897 8.98086C66.2423 12.52 67.6374 18.2975 67.6749 26.3134C67.7123 34.2813 66.348 40.1918 63.582 44.0448C60.816 47.8978 56.3131 49.839 50.0732 49.8682C43.8332 49.8975 39.3364 48.0225 36.5826 44.2434C33.8289 40.4642 32.4334 34.5907 32.396 26.6228C32.3584 18.6069 33.6992 12.7925 36.4183 9.17976ZM55.2911 26.3715C55.2704 21.9555 54.8964 18.9813 54.1692 17.4486C53.4898 15.8678 52.0701 15.0825 49.9102 15.0926C47.7982 15.1025 46.4339 15.9009 45.8173 17.4878C45.2005 19.0267 44.9024 21.9801 44.9229 26.3481L44.931 28.0761C44.9528 32.732 45.3032 35.8024 45.9821 37.2872C46.7089 38.7239 48.1282 39.4372 50.2402 39.4273C52.4002 39.4172 53.7889 38.7147 54.4064 37.3198C55.0239 35.9248 55.3224 33.0434 55.3019 28.6755L55.2911 26.3715Z" fill="white" class="ldYkeAKq_19"></path>
<path d="M96.7175 15.2332L84.8376 15.2889L84.869 21.9848L94.4449 21.9399L94.4895 31.4438L84.9136 31.4887L84.9956 48.9845L72.6837 49.0422L72.4741 4.3307L97.3859 4.21392L96.7175 15.2332Z" fill="white" class="ldYkeAKq_20"></path>
<path d="M126.22 14.9509L117.868 14.99L118.026 48.8297L105.714 48.8874L105.556 15.0477L96.7 15.0893L97.369 4.214L126.889 4.07563L126.22 14.9509Z" fill="white" class="ldYkeAKq_21"></path>
<path d="M174.131 3.85418L170.309 48.5846L155.477 48.6541L151.496 28.8726L150.92 28.8753L147.773 48.6902L132.869 48.7601L127.98 4.07052L139.788 4.01517L141.771 27.6941L142.491 27.6908L145.404 3.98884L157.428 3.93248L160.851 27.6047L161.571 27.6013L162.756 3.9075L174.131 3.85418Z" fill="white" class="ldYkeAKq_22"></path>
<path d="M211.036 48.3937L199.013 48.45L197.611 41.4005L189.116 41.4404L187.781 48.5027L176.333 48.5564L184.331 3.80637L202.619 3.72065L211.036 48.3937ZM196.204 32.983L193.609 17.011L193.105 17.0134L190.66 33.009L196.204 32.983Z" fill="white" class="ldYkeAKq_23"></path>
<path d="M245.24 17.705C245.253 20.393 244.855 22.6269 244.048 24.4067C243.24 26.1865 241.976 27.8004 240.254 29.2485L246.319 48.2283L233 48.2907L228.46 32.1838L226.804 32.1916L226.88 48.3194L214.784 48.3761L214.574 3.66461L231.278 3.58631C236.078 3.56381 239.587 4.67537 241.806 6.921C244.072 9.1664 245.217 12.7611 245.24 17.705ZM228.641 24.6229C229.889 24.6171 230.775 24.2529 231.299 23.5304C231.824 22.808 232.082 21.5107 232.073 19.6388C232.064 17.7188 231.794 16.4 231.263 15.6825C230.731 14.917 229.865 14.5371 228.665 14.5427L226.721 14.5518L226.769 24.6317L228.641 24.6229Z" fill="white" class="ldYkeAKq_24"></path>
<path d="M274.553 48.096L250.361 48.2093L250.152 3.49784L275.064 3.38106L274.395 14.4003L262.515 14.456L262.547 21.1519L272.843 21.1037L272.887 30.6076L262.591 30.6558L262.626 38.0717L275.226 38.0127L274.553 48.096Z" fill="white" class="ldYkeAKq_25"></path>
<path d="M327.742 24.5184C327.815 40.0702 321.707 47.8749 309.419 47.9325L294.588 48.002L294.378 3.29053L309.498 3.21965C316.074 3.18883 320.738 5.01498 323.492 8.69812C326.293 12.333 327.709 17.6064 327.742 24.5184ZM309.155 37.5656C311.699 37.5537 313.327 36.6581 314.038 34.8787C314.798 33.0511 315.167 30.0254 315.148 25.8014C315.128 21.5295 314.706 18.5074 313.881 16.7353C313.105 14.9629 311.421 14.0828 308.829 14.0949L306.669 14.105L306.779 37.5768L309.155 37.5656Z" fill="white" class="ldYkeAKq_26"></path>
<path d="M356.677 47.711L332.486 47.8244L332.276 3.11288L357.188 2.99611L356.519 14.0154L344.639 14.0711L344.671 20.767L354.967 20.7187L355.011 30.2226L344.715 30.2709L344.75 37.6868L357.35 37.6277L356.677 47.711Z" fill="white" class="ldYkeAKq_27"></path>
<path d="M393.713 2.8249L386.362 47.5718L367.355 47.6609L359.081 2.98723L372.689 2.92345L376.714 32.2089L377.938 32.2032L380.753 2.88565L393.713 2.8249Z" fill="white" class="ldYkeAKq_28"></path>
<path d="M422.138 47.4042L397.946 47.5176L397.736 2.80604L422.648 2.68926L421.98 13.7085L410.1 13.7642L410.131 20.4601L420.427 20.4119L420.472 29.9158L410.176 29.964L410.21 37.3799L422.81 37.3209L422.138 47.4042Z" fill="white" class="ldYkeAKq_29"></path>
<path d="M449.807 47.2745L427.055 47.3811L426.845 2.66959L439.157 2.61188L439.32 37.3155L450.48 37.2632L449.807 47.2745Z" fill="white" class="ldYkeAKq_30"></path>
<path d="M455.617 7.21478C458.384 3.60177 462.911 1.78052 469.199 1.75105C475.487 1.72157 479.984 3.47652 482.688 7.01588C485.441 10.555 486.836 16.3325 486.873 24.3485C486.911 32.3164 485.547 38.2268 482.781 42.0798C480.015 45.9328 475.512 47.874 469.272 47.9032C463.032 47.9325 458.535 46.0575 455.781 42.2784C453.027 38.4993 451.632 32.6257 451.595 24.6578C451.557 16.6419 452.898 10.8276 455.617 7.21478ZM474.49 24.4065C474.469 19.9905 474.095 17.0163 473.368 15.4837C472.688 13.9028 471.269 13.1175 469.109 13.1276C466.997 13.1375 465.632 13.9359 465.016 15.5228C464.399 17.0617 464.101 20.0151 464.121 24.3831L464.129 26.1111C464.151 30.767 464.502 33.8374 465.181 35.3223C465.907 36.7589 467.327 37.4722 469.439 37.4623C471.599 37.4522 472.987 36.7497 473.605 35.3548C474.222 33.9599 474.521 31.0784 474.5 26.7105L474.49 24.4065Z" fill="white" class="ldYkeAKq_31"></path>
<path d="M507.222 32.3892L503.91 32.4047L503.978 47.0205L491.882 47.0772L491.673 2.36571L506.288 2.2972C511.424 2.27313 515.246 3.43123 517.753 5.7715C520.26 8.11178 521.526 11.9699 521.551 17.3458C521.576 22.7218 520.418 26.5672 518.077 28.8822C515.736 31.1972 512.118 32.3662 507.222 32.3892ZM508.544 22.6629C508.972 21.8448 509.181 20.3798 509.171 18.2679C509.162 16.1559 508.915 14.669 508.43 13.8073C507.946 12.9455 506.984 12.5181 505.544 12.5248L503.816 12.5329L503.87 23.9088L505.886 23.8993C507.23 23.893 508.116 23.4809 508.544 22.6629Z" fill="white" class="ldYkeAKq_32"></path>
<path d="M549.472 46.8073L525.28 46.9207L525.071 2.20916L549.983 2.09239L549.314 13.1116L537.434 13.1673L537.466 19.8633L547.762 19.815L547.806 29.3189L537.51 29.3672L537.545 36.7831L550.145 36.724L549.472 46.8073Z" fill="white" class="ldYkeAKq_33"></path>
<path d="M584.846 16.1131C584.859 18.8011 584.461 21.035 583.653 22.8148C582.846 24.5946 581.581 26.2085 579.86 27.6566L585.925 46.6364L572.605 46.6988L568.066 30.5919L566.41 30.5997L566.485 46.7275L554.389 46.7842L554.18 2.07271L570.884 1.99441C575.684 1.97191 579.193 3.08348 581.411 5.32911C583.678 7.57451 584.823 11.1692 584.846 16.1131ZM568.246 23.031C569.494 23.0252 570.38 22.661 570.905 21.9385C571.43 21.2161 571.688 19.9188 571.679 18.0469C571.67 16.1269 571.4 14.8081 570.868 14.0906C570.337 13.3251 569.471 12.9452 568.271 12.9508L566.327 12.9599L566.374 23.0398L568.246 23.031Z" fill="white" class="ldYkeAKq_34"></path>
<path d="M1.05329 18.1296C1.03326 13.8577 2.26516 10.4199 4.74899 7.81619C7.23281 5.21252 10.6347 3.90056 14.9546 3.88031C19.3226 3.85984 23.7886 4.27091 28.3526 5.11352L26.9666 16.6401C22.2095 15.5584 18.9429 15.0217 17.1669 15.0301C14.911 15.0406 13.7872 15.9579 13.7958 17.7819C13.7992 18.5019 14.3304 19.1954 15.3896 19.8625C16.4967 20.5293 17.8201 21.2431 19.3596 22.0039C20.899 22.7167 22.4392 23.5974 23.9801 24.6462C25.5208 25.647 26.8236 27.1049 27.8886 29.02C29.0016 30.9348 29.564 33.1402 29.5757 35.6361C29.597 40.1961 28.3896 43.7298 25.9533 46.2372C23.517 48.7447 20.0429 50.009 15.531 50.0301C11.067 50.051 6.69581 49.3755 2.41733 48.0036L3.15904 37.272C8.30196 38.7359 11.8814 39.4631 13.8974 39.4537C15.9134 39.4442 16.9172 38.5515 16.9089 36.7755C16.9046 35.8635 16.3487 35.0261 15.2411 34.2633C14.1815 33.5003 12.8819 32.7383 11.3423 31.9776C9.80273 31.2168 8.23858 30.3361 6.64988 29.3355C5.10917 28.3347 3.78232 26.8769 2.66933 24.9621C1.60434 23.0471 1.06566 20.7696 1.05329 18.1296Z" stroke="white" stroke-width="2" mask="url(#path-1-outside-1_1_4)" class="ldYkeAKq_35"></path>
<path d="M36.4183 9.17976C39.1854 5.56675 43.7129 3.74551 50.0008 3.71603C56.2888 3.68656 60.785 5.4415 63.4897 8.98086C66.2423 12.52 67.6374 18.2975 67.6749 26.3134C67.7123 34.2813 66.348 40.1918 63.582 44.0448C60.816 47.8978 56.3131 49.839 50.0732 49.8682C43.8332 49.8975 39.3364 48.0225 36.5826 44.2434C33.8289 40.4642 32.4334 34.5907 32.396 26.6228C32.3584 18.6069 33.6992 12.7925 36.4183 9.17976ZM55.2911 26.3715C55.2704 21.9555 54.8964 18.9813 54.1692 17.4486C53.4898 15.8678 52.0701 15.0825 49.9102 15.0926C47.7982 15.1025 46.4339 15.9009 45.8173 17.4878C45.2005 19.0267 44.9024 21.9801 44.9229 26.3481L44.931 28.0761C44.9528 32.732 45.3032 35.8024 45.9821 37.2872C46.7089 38.7239 48.1282 39.4372 50.2402 39.4273C52.4002 39.4172 53.7889 38.7147 54.4064 37.3198C55.0239 35.9248 55.3224 33.0434 55.3019 28.6755L55.2911 26.3715Z" stroke="white" stroke-width="2" mask="url(#path-1-outside-1_1_4)" class="ldYkeAKq_36"></path>
<path d="M96.7175 15.2332L84.8376 15.2889L84.869 21.9848L94.4449 21.9399L94.4895 31.4438L84.9136 31.4887L84.9956 48.9845L72.6837 49.0422L72.4741 4.3307L97.3859 4.21392L96.7175 15.2332Z" stroke="white" stroke-width="2" mask="url(#path-1-outside-1_1_4)" class="ldYkeAKq_37"></path>
<path d="M126.22 14.9509L117.868 14.99L118.026 48.8297L105.714 48.8874L105.556 15.0477L96.7 15.0893L97.369 4.214L126.889 4.07563L126.22 14.9509Z" stroke="white" stroke-width="2" mask="url(#path-1-outside-1_1_4)" class="ldYkeAKq_38"></path>
<path d="M174.131 3.85418L170.309 48.5846L155.477 48.6541L151.496 28.8726L150.92 28.8753L147.773 48.6902L132.869 48.7601L127.98 4.07052L139.788 4.01517L141.771 27.6941L142.491 27.6908L145.404 3.98884L157.428 3.93248L160.851 27.6047L161.571 27.6013L162.756 3.9075L174.131 3.85418Z" stroke="white" stroke-width="2" mask="url(#path-1-outside-1_1_4)" class="ldYkeAKq_39"></path>
<path d="M211.036 48.3937L199.013 48.45L197.611 41.4005L189.116 41.4404L187.781 48.5027L176.333 48.5564L184.331 3.80637L202.619 3.72065L211.036 48.3937ZM196.204 32.983L193.609 17.011L193.105 17.0134L190.66 33.009L196.204 32.983Z" stroke="white" stroke-width="2" mask="url(#path-1-outside-1_1_4)" class="ldYkeAKq_40"></path>
<path d="M245.24 17.705C245.253 20.393 244.855 22.6269 244.048 24.4067C243.24 26.1865 241.976 27.8004 240.254 29.2485L246.319 48.2283L233 48.2907L228.46 32.1838L226.804 32.1916L226.88 48.3194L214.784 48.3761L214.574 3.66461L231.278 3.58631C236.078 3.56381 239.587 4.67537 241.806 6.921C244.072 9.1664 245.217 12.7611 245.24 17.705ZM228.641 24.6229C229.889 24.6171 230.775 24.2529 231.299 23.5304C231.824 22.808 232.082 21.5107 232.073 19.6388C232.064 17.7188 231.794 16.4 231.263 15.6825C230.731 14.917 229.865 14.5371 228.665 14.5427L226.721 14.5518L226.769 24.6317L228.641 24.6229Z" stroke="white" stroke-width="2" mask="url(#path-1-outside-1_1_4)" class="ldYkeAKq_41"></path>
<path d="M274.553 48.096L250.361 48.2093L250.152 3.49784L275.064 3.38106L274.395 14.4003L262.515 14.456L262.547 21.1519L272.843 21.1037L272.887 30.6076L262.591 30.6558L262.626 38.0717L275.226 38.0127L274.553 48.096Z" stroke="white" stroke-width="2" mask="url(#path-1-outside-1_1_4)" class="ldYkeAKq_42"></path>
<path d="M327.742 24.5184C327.815 40.0702 321.707 47.8749 309.419 47.9325L294.588 48.002L294.378 3.29053L309.498 3.21965C316.074 3.18883 320.738 5.01498 323.492 8.69812C326.293 12.333 327.709 17.6064 327.742 24.5184ZM309.155 37.5656C311.699 37.5537 313.327 36.6581 314.038 34.8787C314.798 33.0511 315.167 30.0254 315.148 25.8014C315.128 21.5295 314.706 18.5074 313.881 16.7353C313.105 14.9629 311.421 14.0828 308.829 14.0949L306.669 14.105L306.779 37.5768L309.155 37.5656Z" stroke="white" stroke-width="2" mask="url(#path-1-outside-1_1_4)" class="ldYkeAKq_43"></path>
<path d="M356.677 47.711L332.486 47.8244L332.276 3.11288L357.188 2.99611L356.519 14.0154L344.639 14.0711L344.671 20.767L354.967 20.7187L355.011 30.2226L344.715 30.2709L344.75 37.6868L357.35 37.6277L356.677 47.711Z" stroke="white" stroke-width="2" mask="url(#path-1-outside-1_1_4)" class="ldYkeAKq_44"></path>
<path d="M393.713 2.8249L386.362 47.5718L367.355 47.6609L359.081 2.98723L372.689 2.92345L376.714 32.2089L377.938 32.2032L380.753 2.88565L393.713 2.8249Z" stroke="white" stroke-width="2" mask="url(#path-1-outside-1_1_4)" class="ldYkeAKq_45"></path>
<path d="M422.138 47.4042L397.946 47.5176L397.736 2.80604L422.648 2.68926L421.98 13.7085L410.1 13.7642L410.131 20.4601L420.427 20.4119L420.472 29.9158L410.176 29.964L410.21 37.3799L422.81 37.3209L422.138 47.4042Z" stroke="white" stroke-width="2" mask="url(#path-1-outside-1_1_4)" class="ldYkeAKq_46"></path>
<path d="M449.807 47.2745L427.055 47.3811L426.845 2.66959L439.157 2.61188L439.32 37.3155L450.48 37.2632L449.807 47.2745Z" stroke="white" stroke-width="2" mask="url(#path-1-outside-1_1_4)" class="ldYkeAKq_47"></path>
<path d="M455.617 7.21478C458.384 3.60177 462.911 1.78052 469.199 1.75105C475.487 1.72157 479.984 3.47652 482.688 7.01588C485.441 10.555 486.836 16.3325 486.873 24.3485C486.911 32.3164 485.547 38.2268 482.781 42.0798C480.015 45.9328 475.512 47.874 469.272 47.9032C463.032 47.9325 458.535 46.0575 455.781 42.2784C453.027 38.4993 451.632 32.6257 451.595 24.6578C451.557 16.6419 452.898 10.8276 455.617 7.21478ZM474.49 24.4065C474.469 19.9905 474.095 17.0163 473.368 15.4837C472.688 13.9028 471.269 13.1175 469.109 13.1276C466.997 13.1375 465.632 13.9359 465.016 15.5228C464.399 17.0617 464.101 20.0151 464.121 24.3831L464.129 26.1111C464.151 30.767 464.502 33.8374 465.181 35.3223C465.907 36.7589 467.327 37.4722 469.439 37.4623C471.599 37.4522 472.987 36.7497 473.605 35.3548C474.222 33.9599 474.521 31.0784 474.5 26.7105L474.49 24.4065Z" stroke="white" stroke-width="2" mask="url(#path-1-outside-1_1_4)" class="ldYkeAKq_48"></path>
<path d="M507.222 32.3892L503.91 32.4047L503.978 47.0205L491.882 47.0772L491.673 2.36571L506.288 2.2972C511.424 2.27313 515.246 3.43123 517.753 5.7715C520.26 8.11178 521.526 11.9699 521.551 17.3458C521.576 22.7218 520.418 26.5672 518.077 28.8822C515.736 31.1972 512.118 32.3662 507.222 32.3892ZM508.544 22.6629C508.972 21.8448 509.181 20.3798 509.171 18.2679C509.162 16.1559 508.915 14.669 508.43 13.8073C507.946 12.9455 506.984 12.5181 505.544 12.5248L503.816 12.5329L503.87 23.9088L505.886 23.8993C507.23 23.893 508.116 23.4809 508.544 22.6629Z" stroke="white" stroke-width="2" mask="url(#path-1-outside-1_1_4)" class="ldYkeAKq_49"></path>
<path d="M549.472 46.8073L525.28 46.9207L525.071 2.20916L549.983 2.09239L549.314 13.1116L537.434 13.1673L537.466 19.8633L547.762 19.815L547.806 29.3189L537.51 29.3672L537.545 36.7831L550.145 36.724L549.472 46.8073Z" stroke="white" stroke-width="2" mask="url(#path-1-outside-1_1_4)" class="ldYkeAKq_50"></path>
<path d="M584.846 16.1131C584.859 18.8011 584.461 21.035 583.653 22.8148C582.846 24.5946 581.581 26.2085 579.86 27.6566L585.925 46.6364L572.605 46.6988L568.066 30.5919L566.41 30.5997L566.485 46.7275L554.389 46.7842L554.18 2.07271L570.884 1.99441C575.684 1.97191 579.193 3.08348 581.411 5.32911C583.678 7.57451 584.823 11.1692 584.846 16.1131ZM568.246 23.031C569.494 23.0252 570.38 22.661 570.905 21.9385C571.43 21.2161 571.688 19.9188 571.679 18.0469C571.67 16.1269 571.4 14.8081 570.868 14.0906C570.337 13.3251 569.471 12.9452 568.271 12.9508L566.327 12.9599L566.374 23.0398L568.246 23.031Z" stroke="white" stroke-width="2" mask="url(#path-1-outside-1_1_4)" class="ldYkeAKq_51"></path>
</g>
<style data-made-with="vivus-instant">.ldYkeAKq_0{stroke-dasharray:1280 1282;stroke-dashoffset:1281;animation:ldYkeAKq_draw_0 7200ms linear 0ms infinite,ldYkeAKq_fade 7200ms linear 0ms infinite;}.ldYkeAKq_1{stroke-dasharray:177 179;stroke-dashoffset:178;animation:ldYkeAKq_draw_1 7200ms linear 0ms infinite,ldYkeAKq_fade 7200ms linear 0ms infinite;}.ldYkeAKq_2{stroke-dasharray:195 197;stroke-dashoffset:196;animation:ldYkeAKq_draw_2 7200ms linear 0ms infinite,ldYkeAKq_fade 7200ms linear 0ms infinite;}.ldYkeAKq_3{stroke-dasharray:158 160;stroke-dashoffset:159;animation:ldYkeAKq_draw_3 7200ms linear 0ms infinite,ldYkeAKq_fade 7200ms linear 0ms infinite;}.ldYkeAKq_4{stroke-dasharray:149 151;stroke-dashoffset:150;animation:ldYkeAKq_draw_4 7200ms linear 0ms infinite,ldYkeAKq_fade 7200ms linear 0ms infinite;}.ldYkeAKq_5{stroke-dasharray:293 295;stroke-dashoffset:294;animation:ldYkeAKq_draw_5 7200ms linear 0ms infinite,ldYkeAKq_fade 7200ms linear 0ms infinite;}.ldYkeAKq_6{stroke-dasharray:194 196;stroke-dashoffset:195;animation:ldYkeAKq_draw_6 7200ms linear 0ms infinite,ldYkeAKq_fade 7200ms linear 0ms infinite;}.ldYkeAKq_7{stroke-dasharray:206 208;stroke-dashoffset:207;animation:ldYkeAKq_draw_7 7200ms linear 0ms infinite,ldYkeAKq_fade 7200ms linear 0ms infinite;}.ldYkeAKq_8{stroke-dasharray:184 186;stroke-dashoffset:185;animation:ldYkeAKq_draw_8 7200ms linear 0ms infinite,ldYkeAKq_fade 7200ms linear 0ms infinite;}.ldYkeAKq_9{stroke-dasharray:200 202;stroke-dashoffset:201;animation:ldYkeAKq_draw_9 7200ms linear 0ms infinite,ldYkeAKq_fade 7200ms linear 0ms infinite;}.ldYkeAKq_10{stroke-dasharray:184 186;stroke-dashoffset:185;animation:ldYkeAKq_draw_10 7200ms linear 0ms infinite,ldYkeAKq_fade 7200ms linear 0ms infinite;}.ldYkeAKq_11{stroke-dasharray:197 199;stroke-dashoffset:198;animation:ldYkeAKq_draw_11 7200ms linear 0ms infinite,ldYkeAKq_fade 7200ms linear 0ms infinite;}.ldYkeAKq_12{stroke-dasharray:184 186;stroke-dashoffset:185;animation:ldYkeAKq_draw_12 7200ms linear 0ms infinite,ldYkeAKq_fade 7200ms linear 0ms infinite;}.ldYkeAKq_13{stroke-dasharray:136 138;stroke-dashoffset:137;animation:ldYkeAKq_draw_13 7200ms linear 0ms infinite,ldYkeAKq_fade 7200ms linear 0ms infinite;}.ldYkeAKq_14{stroke-dasharray:195 197;stroke-dashoffset:196;animation:ldYkeAKq_draw_14 7200ms linear 0ms infinite,ldYkeAKq_fade 7200ms linear 0ms infinite;}.ldYkeAKq_15{stroke-dasharray:169 171;stroke-dashoffset:170;animation:ldYkeAKq_draw_15 7200ms linear 0ms infinite,ldYkeAKq_fade 7200ms linear 0ms infinite;}.ldYkeAKq_16{stroke-dasharray:184 186;stroke-dashoffset:185;animation:ldYkeAKq_draw_16 7200ms linear 0ms infinite,ldYkeAKq_fade 7200ms linear 0ms infinite;}.ldYkeAKq_17{stroke-dasharray:206 208;stroke-dashoffset:207;animation:ldYkeAKq_draw_17 7200ms linear 0ms infinite,ldYkeAKq_fade 7200ms linear 0ms infinite;}.ldYkeAKq_18{stroke-dasharray:177 179;stroke-dashoffset:178;animation:ldYkeAKq_draw_18 7200ms linear 0ms infinite,ldYkeAKq_fade 7200ms linear 0ms infinite;}.ldYkeAKq_19{stroke-dasharray:195 197;stroke-dashoffset:196;animation:ldYkeAKq_draw_19 7200ms linear 0ms infinite,ldYkeAKq_fade 7200ms linear 0ms infinite;}.ldYkeAKq_20{stroke-dasharray:158 160;stroke-dashoffset:159;animation:ldYkeAKq_draw_20 7200ms linear 0ms infinite,ldYkeAKq_fade 7200ms linear 0ms infinite;}.ldYkeAKq_21{stroke-dasharray:149 151;stroke-dashoffset:150;animation:ldYkeAKq_draw_21 7200ms linear 0ms infinite,ldYkeAKq_fade 7200ms linear 0ms infinite;}.ldYkeAKq_22{stroke-dasharray:293 295;stroke-dashoffset:294;animation:ldYkeAKq_draw_22 7200ms linear 0ms infinite,ldYkeAKq_fade 7200ms linear 0ms infinite;}.ldYkeAKq_23{stroke-dasharray:194 196;stroke-dashoffset:195;animation:ldYkeAKq_draw_23 7200ms linear 0ms infinite,ldYkeAKq_fade 7200ms linear 0ms infinite;}.ldYkeAKq_24{stroke-dasharray:206 208;stroke-dashoffset:207;animation:ldYkeAKq_draw_24 7200ms linear 0ms infinite,ldYkeAKq_fade 7200ms linear 0ms infinite;}.ldYkeAKq_25{stroke-dasharray:184 186;stroke-dashoffset:185;animation:ldYkeAKq_draw_25 7200ms linear 0ms infinite,ldYkeAKq_fade 7200ms linear 0ms infinite;}.ldYkeAKq_26{stroke-dasharray:200 202;stroke-dashoffset:201;animation:ldYkeAKq_draw_26 7200ms linear 0ms infinite,ldYkeAKq_fade 7200ms linear 0ms infinite;}.ldYkeAKq_27{stroke-dasharray:184 186;stroke-dashoffset:185;animation:ldYkeAKq_draw_27 7200ms linear 0ms infinite,ldYkeAKq_fade 7200ms linear 0ms infinite;}.ldYkeAKq_28{stroke-dasharray:197 199;stroke-dashoffset:198;animation:ldYkeAKq_draw_28 7200ms linear 0ms infinite,ldYkeAKq_fade 7200ms linear 0ms infinite;}.ldYkeAKq_29{stroke-dasharray:184 186;stroke-dashoffset:185;animation:ldYkeAKq_draw_29 7200ms linear 0ms infinite,ldYkeAKq_fade 7200ms linear 0ms infinite;}.ldYkeAKq_30{stroke-dasharray:136 138;stroke-dashoffset:137;animation:ldYkeAKq_draw_30 7200ms linear 0ms infinite,ldYkeAKq_fade 7200ms linear 0ms infinite;}.ldYkeAKq_31{stroke-dasharray:195 197;stroke-dashoffset:196;animation:ldYkeAKq_draw_31 7200ms linear 0ms infinite,ldYkeAKq_fade 7200ms linear 0ms infinite;}.ldYkeAKq_32{stroke-dasharray:169 171;stroke-dashoffset:170;animation:ldYkeAKq_draw_32 7200ms linear 0ms infinite,ldYkeAKq_fade 7200ms linear 0ms infinite;}.ldYkeAKq_33{stroke-dasharray:184 186;stroke-dashoffset:185;animation:ldYkeAKq_draw_33 7200ms linear 0ms infinite,ldYkeAKq_fade 7200ms linear 0ms infinite;}.ldYkeAKq_34{stroke-dasharray:206 208;stroke-dashoffset:207;animation:ldYkeAKq_draw_34 7200ms linear 0ms infinite,ldYkeAKq_fade 7200ms linear 0ms infinite;}.ldYkeAKq_35{stroke-dasharray:177 179;stroke-dashoffset:178;animation:ldYkeAKq_draw_35 7200ms linear 0ms infinite,ldYkeAKq_fade 7200ms linear 0ms infinite;}.ldYkeAKq_36{stroke-dasharray:195 197;stroke-dashoffset:196;animation:ldYkeAKq_draw_36 7200ms linear 0ms infinite,ldYkeAKq_fade 7200ms linear 0ms infinite;}.ldYkeAKq_37{stroke-dasharray:158 160;stroke-dashoffset:159;animation:ldYkeAKq_draw_37 7200ms linear 0ms infinite,ldYkeAKq_fade 7200ms linear 0ms infinite;}.ldYkeAKq_38{stroke-dasharray:149 151;stroke-dashoffset:150;animation:ldYkeAKq_draw_38 7200ms linear 0ms infinite,ldYkeAKq_fade 7200ms linear 0ms infinite;}.ldYkeAKq_39{stroke-dasharray:293 295;stroke-dashoffset:294;animation:ldYkeAKq_draw_39 7200ms linear 0ms infinite,ldYkeAKq_fade 7200ms linear 0ms infinite;}.ldYkeAKq_40{stroke-dasharray:194 196;stroke-dashoffset:195;animation:ldYkeAKq_draw_40 7200ms linear 0ms infinite,ldYkeAKq_fade 7200ms linear 0ms infinite;}.ldYkeAKq_41{stroke-dasharray:206 208;stroke-dashoffset:207;animation:ldYkeAKq_draw_41 7200ms linear 0ms infinite,ldYkeAKq_fade 7200ms linear 0ms infinite;}.ldYkeAKq_42{stroke-dasharray:184 186;stroke-dashoffset:185;animation:ldYkeAKq_draw_42 7200ms linear 0ms infinite,ldYkeAKq_fade 7200ms linear 0ms infinite;}.ldYkeAKq_43{stroke-dasharray:200 202;stroke-dashoffset:201;animation:ldYkeAKq_draw_43 7200ms linear 0ms infinite,ldYkeAKq_fade 7200ms linear 0ms infinite;}.ldYkeAKq_44{stroke-dasharray:184 186;stroke-dashoffset:185;animation:ldYkeAKq_draw_44 7200ms linear 0ms infinite,ldYkeAKq_fade 7200ms linear 0ms infinite;}.ldYkeAKq_45{stroke-dasharray:197 199;stroke-dashoffset:198;animation:ldYkeAKq_draw_45 7200ms linear 0ms infinite,ldYkeAKq_fade 7200ms linear 0ms infinite;}.ldYkeAKq_46{stroke-dasharray:184 186;stroke-dashoffset:185;animation:ldYkeAKq_draw_46 7200ms linear 0ms infinite,ldYkeAKq_fade 7200ms linear 0ms infinite;}.ldYkeAKq_47{stroke-dasharray:136 138;stroke-dashoffset:137;animation:ldYkeAKq_draw_47 7200ms linear 0ms infinite,ldYkeAKq_fade 7200ms linear 0ms infinite;}.ldYkeAKq_48{stroke-dasharray:195 197;stroke-dashoffset:196;animation:ldYkeAKq_draw_48 7200ms linear 0ms infinite,ldYkeAKq_fade 7200ms linear 0ms infinite;}.ldYkeAKq_49{stroke-dasharray:169 171;stroke-dashoffset:170;animation:ldYkeAKq_draw_49 7200ms linear 0ms infinite,ldYkeAKq_fade 7200ms linear 0ms infinite;}.ldYkeAKq_50{stroke-dasharray:184 186;stroke-dashoffset:185;animation:ldYkeAKq_draw_50 7200ms linear 0ms infinite,ldYkeAKq_fade 7200ms linear 0ms infinite;}.ldYkeAKq_51{stroke-dasharray:206 208;stroke-dashoffset:207;animation:ldYkeAKq_draw_51 7200ms linear 0ms infinite,ldYkeAKq_fade 7200ms linear 0ms infinite;}@keyframes ldYkeAKq_draw{100%{stroke-dashoffset:0;}}@keyframes ldYkeAKq_fade{0%{stroke-opacity:1;}94.44444444444444%{stroke-opacity:1;}100%{stroke-opacity:0;}}@keyframes ldYkeAKq_draw_0{11.11111111111111%{stroke-dashoffset: 1281}38.88888888888889%{ stroke-dashoffset: 0;}100%{ stroke-dashoffset: 0;}}@keyframes ldYkeAKq_draw_1{11.383442265795207%{stroke-dashoffset: 178}39.16122004357298%{ stroke-dashoffset: 0;}100%{ stroke-dashoffset: 0;}}@keyframes ldYkeAKq_draw_2{11.655773420479303%{stroke-dashoffset: 196}39.43355119825708%{ stroke-dashoffset: 0;}100%{ stroke-dashoffset: 0;}}@keyframes ldYkeAKq_draw_3{11.928104575163399%{stroke-dashoffset: 159}39.70588235294118%{ stroke-dashoffset: 0;}100%{ stroke-dashoffset: 0;}}@keyframes ldYkeAKq_draw_4{12.200435729847497%{stroke-dashoffset: 150}39.97821350762527%{ stroke-dashoffset: 0;}100%{ stroke-dashoffset: 0;}}@keyframes ldYkeAKq_draw_5{12.47276688453159%{stroke-dashoffset: 294}40.250544662309366%{ stroke-dashoffset: 0;}100%{ stroke-dashoffset: 0;}}@keyframes ldYkeAKq_draw_6{12.745098039215685%{stroke-dashoffset: 195}40.52287581699346%{ stroke-dashoffset: 0;}100%{ stroke-dashoffset: 0;}}@keyframes ldYkeAKq_draw_7{13.017429193899781%{stroke-dashoffset: 207}40.79520697167756%{ stroke-dashoffset: 0;}100%{ stroke-dashoffset: 0;}}@keyframes ldYkeAKq_draw_8{13.28976034858388%{stroke-dashoffset: 185}41.067538126361654%{ stroke-dashoffset: 0;}100%{ stroke-dashoffset: 0;}}@keyframes ldYkeAKq_draw_9{13.562091503267974%{stroke-dashoffset: 201}41.33986928104576%{ stroke-dashoffset: 0;}100%{ stroke-dashoffset: 0;}}@keyframes ldYkeAKq_draw_10{13.83442265795207%{stroke-dashoffset: 185}41.61220043572985%{ stroke-dashoffset: 0;}100%{ stroke-dashoffset: 0;}}@keyframes ldYkeAKq_draw_11{14.106753812636166%{stroke-dashoffset: 198}41.88453159041395%{ stroke-dashoffset: 0;}100%{ stroke-dashoffset: 0;}}@keyframes ldYkeAKq_draw_12{14.37908496732026%{stroke-dashoffset: 185}42.15686274509803%{ stroke-dashoffset: 0;}100%{ stroke-dashoffset: 0;}}@keyframes ldYkeAKq_draw_13{14.65141612200436%{stroke-dashoffset: 137}42.429193899782135%{ stroke-dashoffset: 0;}100%{ stroke-dashoffset: 0;}}@keyframes ldYkeAKq_draw_14{14.923747276688454%{stroke-dashoffset: 196}42.70152505446623%{ stroke-dashoffset: 0;}100%{ stroke-dashoffset: 0;}}@keyframes ldYkeAKq_draw_15{15.196078431372548%{stroke-dashoffset: 170}42.97385620915033%{ stroke-dashoffset: 0;}100%{ stroke-dashoffset: 0;}}@keyframes ldYkeAKq_draw_16{15.468409586056644%{stroke-dashoffset: 185}43.24618736383442%{ stroke-dashoffset: 0;}100%{ stroke-dashoffset: 0;}}@keyframes ldYkeAKq_draw_17{15.740740740740744%{stroke-dashoffset: 207}43.518518518518526%{ stroke-dashoffset: 0;}100%{ stroke-dashoffset: 0;}}@keyframes ldYkeAKq_draw_18{16.013071895424837%{stroke-dashoffset: 178}43.790849673202615%{ stroke-dashoffset: 0;}100%{ stroke-dashoffset: 0;}}@keyframes ldYkeAKq_draw_19{16.285403050108933%{stroke-dashoffset: 196}44.06318082788671%{ stroke-dashoffset: 0;}100%{ stroke-dashoffset: 0;}}@keyframes ldYkeAKq_draw_20{16.55773420479303%{stroke-dashoffset: 159}44.3355119825708%{ stroke-dashoffset: 0;}100%{ stroke-dashoffset: 0;}}@keyframes ldYkeAKq_draw_21{16.83006535947712%{stroke-dashoffset: 150}44.6078431372549%{ stroke-dashoffset: 0;}100%{ stroke-dashoffset: 0;}}@keyframes ldYkeAKq_draw_22{17.10239651416122%{stroke-dashoffset: 294}44.880174291939%{ stroke-dashoffset: 0;}100%{ stroke-dashoffset: 0;}}@keyframes ldYkeAKq_draw_23{17.374727668845317%{stroke-dashoffset: 195}45.152505446623096%{ stroke-dashoffset: 0;}100%{ stroke-dashoffset: 0;}}@keyframes ldYkeAKq_draw_24{17.64705882352941%{stroke-dashoffset: 207}45.42483660130719%{ stroke-dashoffset: 0;}100%{ stroke-dashoffset: 0;}}@keyframes ldYkeAKq_draw_25{17.91938997821351%{stroke-dashoffset: 185}45.69716775599128%{ stroke-dashoffset: 0;}100%{ stroke-dashoffset: 0;}}@keyframes ldYkeAKq_draw_26{18.191721132897605%{stroke-dashoffset: 201}45.969498910675384%{ stroke-dashoffset: 0;}100%{ stroke-dashoffset: 0;}}@keyframes ldYkeAKq_draw_27{18.4640522875817%{stroke-dashoffset: 185}46.24183006535948%{ stroke-dashoffset: 0;}100%{ stroke-dashoffset: 0;}}@keyframes ldYkeAKq_draw_28{18.736383442265794%{stroke-dashoffset: 198}46.51416122004357%{ stroke-dashoffset: 0;}100%{ stroke-dashoffset: 0;}}@keyframes ldYkeAKq_draw_29{19.00871459694989%{stroke-dashoffset: 185}46.786492374727665%{ stroke-dashoffset: 0;}100%{ stroke-dashoffset: 0;}}@keyframes ldYkeAKq_draw_30{19.28104575163399%{stroke-dashoffset: 137}47.05882352941176%{ stroke-dashoffset: 0;}100%{ stroke-dashoffset: 0;}}@keyframes ldYkeAKq_draw_31{19.553376906318086%{stroke-dashoffset: 196}47.331154684095864%{ stroke-dashoffset: 0;}100%{ stroke-dashoffset: 0;}}@keyframes ldYkeAKq_draw_32{19.825708061002178%{stroke-dashoffset: 170}47.60348583877996%{ stroke-dashoffset: 0;}100%{ stroke-dashoffset: 0;}}@keyframes ldYkeAKq_draw_33{20.098039215686274%{stroke-dashoffset: 185}47.875816993464056%{ stroke-dashoffset: 0;}100%{ stroke-dashoffset: 0;}}@keyframes ldYkeAKq_draw_34{20.370370370370374%{stroke-dashoffset: 207}48.14814814814815%{ stroke-dashoffset: 0;}100%{ stroke-dashoffset: 0;}}@keyframes ldYkeAKq_draw_35{20.64270152505447%{stroke-dashoffset: 178}48.42047930283225%{ stroke-dashoffset: 0;}100%{ stroke-dashoffset: 0;}}@keyframes ldYkeAKq_draw_36{20.915032679738562%{stroke-dashoffset: 196}48.69281045751634%{ stroke-dashoffset: 0;}100%{ stroke-dashoffset: 0;}}@keyframes ldYkeAKq_draw_37{21.187363834422655%{stroke-dashoffset: 159}48.96514161220043%{ stroke-dashoffset: 0;}100%{ stroke-dashoffset: 0;}}@keyframes ldYkeAKq_draw_38{21.459694989106755%{stroke-dashoffset: 150}49.23747276688453%{ stroke-dashoffset: 0;}100%{ stroke-dashoffset: 0;}}@keyframes ldYkeAKq_draw_39{21.73202614379085%{stroke-dashoffset: 294}49.50980392156863%{ stroke-dashoffset: 0;}100%{ stroke-dashoffset: 0;}}@keyframes ldYkeAKq_draw_40{22.004357298474947%{stroke-dashoffset: 195}49.78213507625273%{ stroke-dashoffset: 0;}100%{ stroke-dashoffset: 0;}}@keyframes ldYkeAKq_draw_41{22.276688453159043%{stroke-dashoffset: 207}50.054466230936825%{ stroke-dashoffset: 0;}100%{ stroke-dashoffset: 0;}}@keyframes ldYkeAKq_draw_42{22.54901960784314%{stroke-dashoffset: 185}50.326797385620914%{ stroke-dashoffset: 0;}100%{ stroke-dashoffset: 0;}}@keyframes ldYkeAKq_draw_43{22.821350762527235%{stroke-dashoffset: 201}50.599128540305%{ stroke-dashoffset: 0;}100%{ stroke-dashoffset: 0;}}@keyframes ldYkeAKq_draw_44{23.093681917211327%{stroke-dashoffset: 185}50.871459694989106%{ stroke-dashoffset: 0;}100%{ stroke-dashoffset: 0;}}@keyframes ldYkeAKq_draw_45{23.366013071895427%{stroke-dashoffset: 198}51.14379084967321%{ stroke-dashoffset: 0;}100%{ stroke-dashoffset: 0;}}@keyframes ldYkeAKq_draw_46{23.638344226579523%{stroke-dashoffset: 185}51.4161220043573%{ stroke-dashoffset: 0;}100%{ stroke-dashoffset: 0;}}@keyframes ldYkeAKq_draw_47{23.910675381263616%{stroke-dashoffset: 137}51.688453159041394%{ stroke-dashoffset: 0;}100%{ stroke-dashoffset: 0;}}@keyframes ldYkeAKq_draw_48{24.18300653594771%{stroke-dashoffset: 196}51.96078431372548%{ stroke-dashoffset: 0;}100%{ stroke-dashoffset: 0;}}@keyframes ldYkeAKq_draw_49{24.45533769063181%{stroke-dashoffset: 170}52.233115468409586%{ stroke-dashoffset: 0;}100%{ stroke-dashoffset: 0;}}@keyframes ldYkeAKq_draw_50{24.727668845315907%{stroke-dashoffset: 185}52.50544662309369%{ stroke-dashoffset: 0;}100%{ stroke-dashoffset: 0;}}@keyframes ldYkeAKq_draw_51{25%{stroke-dashoffset: 207}52.77777777777778%{ stroke-dashoffset: 0;}100%{ stroke-dashoffset: 0;}}</style></svg>
