<svg width="269" height="38" viewBox="0 0 269 38" fill="none" xmlns="http://www.w3.org/2000/svg">
<path d="M8.42827 37H0.189631L12.7429 0.636363H22.6506L35.1861 37H26.9474L17.8388 8.94602H17.5547L8.42827 37ZM7.91335 22.7067H27.3736V28.7081H7.91335V22.7067ZM39.5629 37V0.636363H54.1225C56.7977 0.636363 59.029 1.03291 60.8164 1.82599C62.6038 2.61908 63.9473 3.71993 64.8469 5.12855C65.7466 6.52533 66.1964 8.13518 66.1964 9.9581C66.1964 11.3786 65.9123 12.6274 65.3441 13.7045C64.7759 14.7699 63.9947 15.6458 63.0004 16.3324C62.0179 17.0071 60.8933 17.4865 59.6268 17.7706V18.1257C61.0117 18.1849 62.3079 18.5755 63.5153 19.2976C64.7345 20.0196 65.7229 21.0317 66.4805 22.3338C67.238 23.6241 67.6168 25.1629 67.6168 26.9503C67.6168 28.8797 67.1374 30.602 66.1786 32.1172C65.2317 33.6205 63.829 34.8101 61.9705 35.6861C60.1121 36.562 57.8216 37 55.0991 37H39.5629ZM47.2511 30.7145H53.5188C55.6613 30.7145 57.2238 30.3061 58.2063 29.4893C59.1888 28.6607 59.68 27.5599 59.68 26.1868C59.68 25.1806 59.4374 24.2929 58.9521 23.5234C58.4667 22.754 57.7743 22.1503 56.8746 21.7124C55.9869 21.2744 54.9274 21.0554 53.6964 21.0554H47.2511V30.7145ZM47.2511 15.853H52.9506C54.0041 15.853 54.9393 15.6695 55.756 15.3026C56.5846 14.9238 57.2357 14.3911 57.7092 13.7045C58.1945 13.018 58.4371 12.1953 58.4371 11.2365C58.4371 9.92259 57.9696 8.86316 57.0344 8.05824C56.1112 7.25331 54.7972 6.85085 53.0927 6.85085H47.2511V15.853ZM72.6195 37V0.636363H97.1223V6.97514H80.3077V15.6399H95.8617V21.9787H80.3077V30.6612H97.1934V37H72.6195ZM103.235 37V0.636363H110.923V30.6612H126.512V37H103.235ZM143.176 37V0.636363H157.523C160.281 0.636363 162.63 1.16311 164.572 2.21662C166.513 3.25829 167.993 4.70833 169.011 6.56676C170.04 8.41335 170.555 10.544 170.555 12.9588C170.555 15.3736 170.035 17.5043 168.993 19.3509C167.951 21.1974 166.442 22.6357 164.465 23.6655C162.5 24.6953 160.121 25.2102 157.327 25.2102H148.183V19.049H156.085C157.564 19.049 158.783 18.7945 159.742 18.2855C160.713 17.7647 161.435 17.0485 161.908 16.1371C162.394 15.2138 162.636 14.1544 162.636 12.9588C162.636 11.7514 162.394 10.6979 161.908 9.79829C161.435 8.88684 160.713 8.18253 159.742 7.68537C158.772 7.17637 157.54 6.92188 156.049 6.92188H150.864V37H143.176ZM177.618 37H169.379L181.932 0.636363H191.84L204.376 37H196.137L187.028 8.94602H186.744L177.618 37ZM177.103 22.7067H196.563V28.7081H177.103V22.7067ZM231.213 0.636363H238.901V24.2514C238.901 26.9029 238.268 29.223 237.002 31.2116C235.747 33.2003 233.989 34.7509 231.728 35.8636C229.467 36.9645 226.834 37.5149 223.827 37.5149C220.808 37.5149 218.169 36.9645 215.908 35.8636C213.647 34.7509 211.889 33.2003 210.634 31.2116C209.38 29.223 208.752 26.9029 208.752 24.2514V0.636363H216.441V23.5945C216.441 24.9794 216.742 26.2105 217.346 27.2876C217.962 28.3648 218.826 29.2112 219.938 29.8267C221.051 30.4422 222.347 30.75 223.827 30.75C225.318 30.75 226.615 30.4422 227.715 29.8267C228.828 29.2112 229.686 28.3648 230.29 27.2876C230.905 26.2105 231.213 24.9794 231.213 23.5945V0.636363ZM245.227 37V0.636363H252.915V30.6612H268.505V37H245.227Z" fill="white"/>
</svg>
